<svg id="svg" version="1.1" xmlns="http://www.w3.org/2000/svg" xmlns:xlink="http://www.w3.org/1999/xlink" width="400" height="400" viewBox="0, 0, 400,400"><g id="svgg"><path id="path0" d="M199.600 92.015 C 198.461 92.390,195.901 93.056,190.200 94.460 C 189.320 94.677,188.060 95.009,187.400 95.199 C 186.740 95.388,182.375 96.478,177.700 97.621 L 169.200 99.698 169.200 113.416 C 169.200 120.961,169.091 127.419,168.957 127.767 C 168.743 128.325,167.292 128.400,156.757 128.400 L 144.800 128.400 144.800 131.551 L 144.800 134.701 148.700 135.186 C 156.911 136.207,168.566 138.006,168.859 138.299 C 169.027 138.467,169.228 168.574,169.306 205.202 C 169.407 252.328,169.578 272.268,169.891 273.400 C 170.135 274.280,170.549 276.080,170.810 277.400 C 172.819 287.542,179.193 296.509,188.134 301.771 C 190.217 302.997,192.046 304.000,192.200 304.000 C 192.353 304.000,193.046 304.262,193.740 304.583 C 202.677 308.717,221.088 310.421,230.800 308.013 C 240.747 305.547,248.438 301.796,254.354 296.526 L 255.335 295.653 254.293 294.326 C 253.720 293.597,252.820 292.476,252.292 291.835 L 251.332 290.671 249.566 291.853 C 238.735 299.103,223.916 300.135,215.200 294.247 C 208.032 289.405,204.500 281.851,203.222 268.631 C 202.699 263.212,202.630 138.552,203.151 138.230 C 203.344 138.111,206.809 137.747,210.851 137.422 C 224.218 136.346,233.716 135.626,240.383 135.183 C 248.270 134.658,247.600 135.012,247.600 131.376 L 247.600 128.400 225.443 128.400 C 205.607 128.400,203.260 128.334,203.043 127.767 C 202.909 127.419,202.800 119.139,202.800 109.367 L 202.800 91.600 201.700 91.643 C 201.095 91.666,200.150 91.833,199.600 92.015 " stroke="none" fill="#050505" fill-rule="evenodd"></path><path id="path1" d="M0.000 200.000 L 0.000 400.000 200.000 400.000 L 400.000 400.000 400.000 200.000 L 400.000 0.000 200.000 0.000 L 0.000 0.000 0.000 200.000 M203.357 91.033 C 203.491 91.381,203.600 99.661,203.600 109.433 L 203.600 127.200 225.520 127.200 C 250.623 127.200,248.400 126.789,248.400 131.431 C 248.400 135.706,249.719 135.300,231.800 136.545 C 223.220 137.141,214.751 137.802,212.979 138.014 C 211.208 138.226,208.364 138.400,206.659 138.400 L 203.559 138.400 203.701 205.100 C 203.802 252.650,203.970 272.202,204.288 273.200 C 204.533 273.970,204.942 275.590,205.196 276.800 C 205.920 280.244,208.290 286.378,209.214 287.200 C 209.337 287.310,209.876 288.030,210.411 288.800 C 215.122 295.586,225.419 298.921,235.200 296.828 C 236.190 296.616,237.540 296.330,238.200 296.191 C 238.860 296.053,239.805 295.773,240.300 295.570 C 240.795 295.366,241.695 294.999,242.300 294.753 C 242.905 294.508,243.713 294.148,244.095 293.953 C 244.477 293.759,245.062 293.600,245.395 293.600 C 245.728 293.600,246.000 293.420,246.000 293.200 C 246.000 292.980,246.183 292.800,246.406 292.800 C 246.630 292.800,247.770 292.164,248.940 291.387 C 251.676 289.570,251.697 289.581,255.561 294.869 C 256.857 296.642,242.660 306.361,238.724 306.394 C 238.352 306.397,237.936 306.580,237.800 306.800 C 237.664 307.020,237.124 307.200,236.600 307.200 C 236.076 307.200,235.548 307.360,235.427 307.556 C 235.306 307.751,234.531 308.026,233.704 308.167 C 232.877 308.307,231.210 308.623,230.000 308.870 C 227.507 309.378,209.186 309.527,206.400 309.061 C 194.214 307.026,182.408 300.611,177.209 293.200 C 176.668 292.430,176.000 291.567,175.723 291.281 C 175.446 290.996,174.910 290.096,174.531 289.281 C 174.152 288.467,173.742 287.710,173.620 287.600 C 173.092 287.123,171.261 282.366,170.464 279.400 C 168.423 271.809,168.400 270.962,168.400 202.679 L 168.400 138.400 166.806 138.400 C 165.929 138.400,164.444 138.230,163.506 138.022 C 162.568 137.814,158.020 137.158,153.400 136.564 C 143.434 135.283,144.000 135.592,144.000 131.431 C 144.000 126.891,143.073 127.200,156.680 127.200 L 168.400 127.200 168.400 113.449 C 168.400 102.641,168.512 99.605,168.921 99.266 C 169.571 98.726,179.927 96.079,184.304 95.334 C 185.021 95.212,185.706 94.951,185.827 94.756 C 185.948 94.560,186.656 94.400,187.400 94.400 C 188.144 94.400,188.864 94.220,189.000 94.000 C 189.136 93.780,189.856 93.600,190.600 93.600 C 191.344 93.600,192.064 93.420,192.200 93.200 C 192.336 92.980,193.056 92.800,193.800 92.800 C 194.544 92.800,195.264 92.620,195.400 92.400 C 195.536 92.180,196.256 92.000,197.000 92.000 C 197.744 92.000,198.464 91.820,198.600 91.600 C 198.736 91.380,199.456 91.200,200.200 91.200 C 200.944 91.200,201.664 91.020,201.800 90.800 C 202.178 90.188,203.085 90.324,203.357 91.033 " stroke="none" fill="#f3f3fb" fill-rule="evenodd"></path><path id="path2" d="M201.896 91.482 L 202.792 91.655 202.900 109.727 L 203.008 127.800 203.104 109.500 L 203.200 91.200 202.100 91.254 C 201.163 91.301,201.133 91.335,201.896 91.482 M198.600 92.000 C 197.493 92.282,197.477 92.309,198.400 92.347 C 198.950 92.369,199.670 92.213,200.000 92.000 C 200.681 91.560,200.329 91.560,198.600 92.000 M195.400 92.800 C 194.293 93.082,194.277 93.109,195.200 93.147 C 195.750 93.169,196.470 93.013,196.800 92.800 C 197.481 92.360,197.129 92.360,195.400 92.800 M192.200 93.600 C 191.093 93.882,191.077 93.909,192.000 93.947 C 192.550 93.969,193.270 93.813,193.600 93.600 C 194.281 93.160,193.929 93.160,192.200 93.600 M189.000 94.400 C 187.893 94.682,187.877 94.709,188.800 94.747 C 189.350 94.769,190.070 94.613,190.400 94.400 C 191.081 93.960,190.729 93.960,189.000 94.400 M184.600 95.437 C 183.280 95.755,181.660 96.178,181.000 96.377 C 180.340 96.575,178.490 97.047,176.890 97.425 C 175.289 97.804,174.057 98.190,174.151 98.284 C 174.350 98.483,187.188 95.346,187.515 95.019 C 187.826 94.708,187.321 94.780,184.600 95.437 M171.200 98.800 C 170.436 99.294,171.258 99.294,172.800 98.800 L 173.800 98.480 172.800 98.446 C 172.250 98.427,171.530 98.587,171.200 98.800 M168.982 99.702 C 168.876 99.979,168.839 106.414,168.900 114.002 L 169.011 127.800 169.105 113.729 C 169.193 100.711,169.252 99.645,169.900 99.476 C 170.556 99.304,170.555 99.290,169.887 99.246 C 169.496 99.221,169.088 99.426,168.982 99.702 M144.569 128.537 C 144.455 128.833,144.416 130.408,144.481 132.037 L 144.600 135.000 146.000 135.052 L 147.400 135.104 146.100 134.927 L 144.800 134.749 144.800 131.581 L 144.800 128.412 156.900 128.300 L 169.000 128.188 156.887 128.094 C 147.051 128.018,144.736 128.101,144.569 128.537 M225.417 128.298 L 247.634 128.407 247.517 131.503 L 247.400 134.600 245.400 134.837 L 243.400 135.074 245.492 135.137 C 247.961 135.211,248.116 134.935,247.921 130.788 L 247.800 128.200 225.500 128.195 L 203.200 128.190 225.417 128.298 M149.000 135.579 C 150.216 135.910,153.873 136.126,153.567 135.849 C 153.475 135.766,152.140 135.598,150.600 135.475 C 148.834 135.335,148.243 135.373,149.000 135.579 M234.200 135.600 L 231.000 135.853 234.000 135.887 C 235.650 135.906,237.990 135.784,239.200 135.617 L 241.400 135.313 239.400 135.330 C 238.300 135.339,235.960 135.461,234.200 135.600 M154.800 136.384 C 155.780 136.714,159.495 136.942,159.167 136.653 C 159.075 136.572,157.830 136.403,156.400 136.277 C 154.770 136.134,154.173 136.174,154.800 136.384 M223.600 136.400 L 220.600 136.656 223.600 136.693 C 225.250 136.713,227.500 136.590,228.600 136.418 L 230.600 136.107 228.600 136.126 C 227.500 136.136,225.250 136.259,223.600 136.400 M160.400 137.184 C 161.380 137.514,165.095 137.742,164.767 137.453 C 164.675 137.372,163.430 137.203,162.000 137.077 C 160.370 136.934,159.773 136.974,160.400 137.184 M213.600 137.200 L 210.600 137.456 213.400 137.488 C 214.940 137.506,217.190 137.384,218.400 137.217 L 220.600 136.913 218.600 136.928 C 217.500 136.937,215.250 137.059,213.600 137.200 M167.100 138.074 L 168.800 138.514 168.830 202.957 C 168.846 238.401,168.981 268.210,169.130 269.200 C 169.278 270.190,169.348 241.212,169.285 204.805 C 169.222 168.398,169.042 138.487,168.885 138.336 C 168.728 138.186,167.880 137.966,167.000 137.848 L 165.400 137.634 167.100 138.074 M204.600 137.957 L 203.000 138.200 202.998 202.100 L 202.996 266.000 203.099 202.240 L 203.202 138.480 206.501 138.096 C 208.494 137.864,209.087 137.712,208.000 137.713 C 207.010 137.713,205.480 137.823,204.600 137.957 M203.293 268.200 C 203.285 269.080,203.416 270.790,203.583 272.000 L 203.887 274.200 203.909 272.400 C 203.920 271.410,203.790 269.700,203.618 268.600 C 203.318 266.669,203.306 266.655,203.293 268.200 M169.668 273.400 C 169.662 274.060,169.811 274.960,170.000 275.400 C 170.470 276.494,170.470 274.667,170.000 273.200 C 169.688 272.225,169.679 272.230,169.668 273.400 M204.254 275.800 C 204.832 280.226,209.143 289.996,210.520 289.999 C 210.697 290.000,210.401 289.415,209.864 288.700 C 207.923 286.114,206.275 282.136,204.439 275.600 L 204.045 274.200 204.254 275.800 M170.456 277.400 C 170.456 277.840,170.611 278.560,170.800 279.000 L 171.144 279.800 171.144 279.000 C 171.144 278.560,170.989 277.840,170.800 277.400 L 170.456 276.600 170.456 277.400 M172.800 285.046 C 172.800 285.445,174.917 289.216,175.061 289.073 C 175.133 289.000,174.728 288.009,174.160 286.871 C 173.212 284.967,172.800 284.415,172.800 285.046 M249.094 291.696 C 248.046 292.370,247.269 293.002,247.366 293.100 C 247.464 293.197,248.396 292.691,249.438 291.974 L 251.332 290.671 252.292 291.835 C 252.820 292.476,253.728 293.607,254.310 294.348 L 255.368 295.696 254.428 296.458 C 253.910 296.877,253.571 297.305,253.675 297.408 C 253.779 297.512,254.281 297.153,254.790 296.610 C 255.824 295.510,255.954 295.836,253.073 292.300 C 251.272 290.089,251.530 290.128,249.094 291.696 M177.423 292.900 C 179.120 294.945,182.680 298.517,183.800 299.299 C 184.460 299.760,183.559 298.781,181.798 297.124 C 180.036 295.467,178.341 293.637,178.030 293.056 C 177.719 292.475,177.287 292.000,177.070 292.000 C 176.853 292.000,177.012 292.405,177.423 292.900 M215.005 294.128 C 222.415 299.063,234.138 299.398,243.900 294.954 C 245.981 294.007,245.399 293.932,243.100 294.851 C 232.897 298.931,222.192 298.576,215.328 293.931 C 214.408 293.309,213.511 292.800,213.333 292.800 C 213.156 292.800,213.908 293.398,215.005 294.128 M251.585 298.832 L 250.200 300.063 251.488 299.213 C 252.630 298.459,253.493 297.600,253.108 297.600 C 253.032 297.600,252.347 298.154,251.585 298.832 M185.200 300.222 C 185.200 300.585,191.201 304.132,191.429 303.904 C 191.504 303.829,190.133 302.933,188.382 301.912 C 186.632 300.890,185.200 300.130,185.200 300.222 M248.084 301.066 C 247.140 301.635,246.448 302.181,246.547 302.280 C 246.724 302.457,250.000 300.433,250.000 300.147 C 250.000 299.921,249.917 299.960,248.084 301.066 M243.000 303.781 C 239.332 305.519,236.053 306.798,235.247 306.806 C 234.891 306.809,234.330 306.995,234.000 307.218 C 233.142 307.799,235.246 307.335,238.000 306.336 C 240.838 305.307,245.614 303.101,245.858 302.706 C 246.110 302.299,246.196 302.266,243.000 303.781 M193.600 304.853 C 194.590 305.300,195.713 305.831,196.095 306.033 C 196.477 306.235,197.107 306.391,197.495 306.379 C 197.883 306.368,197.480 306.079,196.600 305.736 C 195.720 305.393,194.433 304.863,193.740 304.557 C 193.046 304.250,192.326 304.009,192.140 304.020 C 191.953 304.031,192.610 304.406,193.600 304.853 M198.400 306.529 C 198.400 306.808,202.150 307.854,204.200 308.146 C 206.165 308.426,204.860 307.948,201.600 307.195 C 200.390 306.915,199.175 306.602,198.900 306.500 C 198.625 306.398,198.400 306.411,198.400 306.529 M230.800 308.000 C 230.036 308.494,230.858 308.494,232.400 308.000 L 233.400 307.680 232.400 307.646 C 231.850 307.627,231.130 307.787,230.800 308.000 M206.033 308.545 C 206.125 308.625,207.460 308.792,209.000 308.916 C 210.704 309.053,211.409 309.012,210.800 308.811 C 209.822 308.487,205.704 308.258,206.033 308.545 M225.200 308.816 C 224.573 309.026,225.170 309.066,226.800 308.923 C 228.230 308.797,229.475 308.628,229.567 308.547 C 229.895 308.258,226.180 308.486,225.200 308.816 M215.516 309.497 C 216.899 309.575,219.059 309.574,220.316 309.495 C 221.572 309.416,220.440 309.352,217.800 309.353 C 215.160 309.353,214.132 309.418,215.516 309.497 " stroke="none" fill="#6c6c6e" fill-rule="evenodd"></path><path id="path3" d="M241.700 135.476 C 242.085 135.576,242.715 135.576,243.100 135.476 C 243.485 135.375,243.170 135.293,242.400 135.293 C 241.630 135.293,241.315 135.375,241.700 135.476 M206.500 138.276 C 206.885 138.376,207.515 138.376,207.900 138.276 C 208.285 138.175,207.970 138.093,207.200 138.093 C 206.430 138.093,206.115 138.175,206.500 138.276 M203.301 265.400 C 203.305 266.280,203.387 266.593,203.483 266.095 C 203.579 265.598,203.575 264.878,203.475 264.495 C 203.375 264.113,203.296 264.520,203.301 265.400 M180.200 296.400 C 181.283 297.500,182.260 298.400,182.370 298.400 C 182.480 298.400,181.683 297.500,180.600 296.400 C 179.517 295.300,178.540 294.400,178.430 294.400 C 178.320 294.400,179.117 295.300,180.200 296.400 M211.105 309.483 C 211.602 309.579,212.322 309.575,212.705 309.475 C 213.087 309.375,212.680 309.296,211.800 309.301 C 210.920 309.305,210.607 309.387,211.105 309.483 M223.100 309.482 C 223.595 309.578,224.405 309.578,224.900 309.482 C 225.395 309.387,224.990 309.309,224.000 309.309 C 223.010 309.309,222.605 309.387,223.100 309.482 " stroke="none" fill="#9e9ea5" fill-rule="evenodd"></path><path id="path4" d="M203.394 109.400 L 203.400 127.800 225.716 127.903 L 248.031 128.007 247.916 131.503 L 247.800 135.000 245.600 135.235 L 243.400 135.470 245.420 135.535 C 248.135 135.622,248.400 135.255,248.400 131.400 C 248.400 126.794,250.610 127.200,225.524 127.200 L 203.608 127.200 203.498 109.100 L 203.388 91.000 203.394 109.400 M168.494 113.300 L 168.400 127.200 156.649 127.200 C 142.928 127.200,143.907 126.852,144.102 131.661 L 144.237 135.000 144.319 131.500 L 144.400 128.000 156.392 128.000 L 168.385 128.000 168.604 127.100 C 168.725 126.605,168.771 120.170,168.706 112.800 L 168.589 99.400 168.494 113.300 M240.100 135.876 C 240.485 135.976,241.115 135.976,241.500 135.876 C 241.885 135.775,241.570 135.693,240.800 135.693 C 240.030 135.693,239.715 135.775,240.100 135.876 M150.900 136.276 C 151.285 136.376,151.915 136.376,152.300 136.276 C 152.685 136.175,152.370 136.093,151.600 136.093 C 150.830 136.093,150.515 136.175,150.900 136.276 M233.507 136.290 C 234.226 136.379,235.306 136.377,235.907 136.286 C 236.508 136.195,235.920 136.122,234.600 136.124 C 233.280 136.126,232.788 136.201,233.507 136.290 M229.905 136.683 C 230.402 136.779,231.122 136.775,231.505 136.675 C 231.887 136.575,231.480 136.496,230.600 136.501 C 229.720 136.505,229.407 136.587,229.905 136.683 M156.500 137.076 C 156.885 137.176,157.515 137.176,157.900 137.076 C 158.285 136.975,157.970 136.893,157.200 136.893 C 156.430 136.893,156.115 136.975,156.500 137.076 M223.507 137.090 C 224.226 137.179,225.306 137.177,225.907 137.086 C 226.508 136.995,225.920 136.922,224.600 136.924 C 223.280 136.926,222.788 137.001,223.507 137.090 M219.505 137.483 C 220.002 137.579,220.722 137.575,221.105 137.475 C 221.487 137.375,221.080 137.296,220.200 137.301 C 219.320 137.305,219.007 137.387,219.505 137.483 M163.800 138.000 C 164.240 138.189,164.960 138.338,165.400 138.332 C 166.043 138.323,166.004 138.257,165.200 138.000 C 163.832 137.562,162.781 137.562,163.800 138.000 M209.800 138.000 C 208.439 138.244,208.379 138.292,209.400 138.320 C 210.060 138.339,211.320 138.205,212.200 138.023 C 214.293 137.590,212.202 137.570,209.800 138.000 M203.395 201.200 C 203.395 235.850,203.442 250.025,203.500 232.700 C 203.558 215.375,203.558 187.025,203.500 169.700 C 203.442 152.375,203.395 166.550,203.395 201.200 M168.595 203.600 C 168.595 239.350,168.642 253.975,168.700 236.100 C 168.758 218.225,168.758 188.975,168.700 171.100 C 168.642 153.225,168.595 167.850,168.595 203.600 M203.714 266.600 C 203.717 267.700,203.795 268.103,203.887 267.495 C 203.979 266.886,203.977 265.986,203.882 265.495 C 203.787 265.003,203.711 265.500,203.714 266.600 M169.301 273.800 C 169.305 274.680,169.387 274.993,169.483 274.495 C 169.579 273.998,169.575 273.278,169.475 272.895 C 169.375 272.513,169.296 272.920,169.301 273.800 M204.056 272.800 C 204.056 273.130,204.211 273.760,204.400 274.200 C 204.617 274.704,204.744 274.778,204.744 274.400 C 204.744 274.070,204.589 273.440,204.400 273.000 C 204.183 272.496,204.056 272.422,204.056 272.800 M170.006 277.633 C 170.009 278.165,170.189 278.870,170.406 279.200 C 170.682 279.622,170.723 279.385,170.542 278.400 C 170.225 276.675,169.998 276.349,170.006 277.633 M253.000 298.263 C 251.288 299.831,251.236 299.918,252.638 298.863 C 254.119 297.749,255.527 296.376,255.149 296.415 C 255.067 296.424,254.100 297.255,253.000 298.263 M224.000 297.194 C 224.330 297.411,225.035 297.591,225.567 297.594 C 226.851 297.602,226.525 297.375,224.800 297.058 C 223.815 296.877,223.578 296.918,224.000 297.194 M233.200 297.200 C 232.396 297.457,232.357 297.523,233.000 297.532 C 233.440 297.538,234.160 297.389,234.600 297.200 C 235.619 296.762,234.568 296.762,233.200 297.200 M247.100 302.229 C 245.605 303.040,245.696 303.378,247.200 302.600 C 247.860 302.259,248.400 301.894,248.400 301.790 C 248.400 301.532,248.357 301.547,247.100 302.229 M207.800 309.181 C 208.568 309.529,210.710 309.756,210.367 309.453 C 210.275 309.372,209.480 309.196,208.600 309.062 C 207.485 308.893,207.242 308.929,207.800 309.181 M226.400 309.200 L 225.400 309.520 226.400 309.554 C 226.950 309.573,227.670 309.413,228.000 309.200 C 228.764 308.706,227.942 308.706,226.400 309.200 " stroke="none" fill="#b4b4bc" fill-rule="evenodd"></path></g></svg>