<?xml version="1.0" standalone="no"?>
<!DOCTYPE svg PUBLIC "-//W3C//DTD SVG 20010904//EN"
 "http://www.w3.org/TR/2001/REC-SVG-20010904/DTD/svg10.dtd">
<svg version="1.0" xmlns="http://www.w3.org/2000/svg"
 width="512.000000pt" height="512.000000pt" viewBox="0 0 512.000000 512.000000"
 preserveAspectRatio="xMidYMid meet">
<metadata>
Created by potrace 1.16, written by Peter Selinger 2001-2019
</metadata>
<g transform="translate(0.000000,512.000000) scale(0.100000,-0.100000)"
fill="#000000" stroke="none">
<path d="M2378 3902 l-218 -54 0 -184 0 -184 -155 0 -155 0 0 -43 0 -44 123
-17 c67 -9 136 -19 154 -22 l32 -6 3 -867 3 -866 25 -80 c46 -144 132 -244
265 -306 110 -52 175 -64 340 -63 135 0 158 3 230 27 103 34 246 120 245 146
0 3 -12 19 -26 35 l-25 28 -57 -30 c-153 -81 -317 -83 -421 -5 -43 33 -86 102
-114 183 -22 65 -22 69 -25 933 -1 477 1 867 5 867 4 0 121 9 258 20 138 11
262 20 278 20 25 0 27 3 27 45 l0 45 -285 0 -285 0 -2 238 -3 238 -217 -54z"/>
</g>
</svg>
